<?xml version="1.0" standalone="no"?>
<!DOCTYPE svg PUBLIC "-//W3C//DTD SVG 20010904//EN"
 "http://www.w3.org/TR/2001/REC-SVG-20010904/DTD/svg10.dtd">
<svg version="1.0" xmlns="http://www.w3.org/2000/svg"
 width="590.000000pt" height="590.000000pt" viewBox="0 0 590.000000 590.000000"
 preserveAspectRatio="xMidYMid meet">
<metadata>
Created by potrace 1.11, written by Peter Selinger 2001-2013
</metadata>
<g transform="translate(0.000000,590.000000) scale(0.100000,-0.100000)"
fill="#000000" stroke="none">
<path d="M2759 5896 c-2 -2 -40 -6 -84 -10 -109 -9 -309 -42 -430 -72 -111
-27 -361 -108 -403 -130 -15 -7 -30 -14 -34 -14 -15 0 -243 -114 -335 -167
-370 -213 -710 -528 -955 -883 -283 -410 -458 -895 -506 -1400 -9 -99 -9 -455
1 -550 33 -315 105 -600 223 -878 50 -117 140 -293 185 -360 16 -24 29 -45 29
-48 0 -6 100 -154 110 -164 3 -3 25 -32 50 -65 193 -260 510 -546 800 -722
261 -159 614 -303 875 -358 11 -3 31 -7 45 -10 59 -13 80 -16 170 -30 186 -28
268 -33 500 -30 129 2 244 6 256 8 11 3 46 8 78 11 31 4 105 16 164 27 1042
197 1902 944 2245 1949 35 103 99 346 111 425 3 22 9 57 12 79 3 21 8 48 10
60 26 131 26 596 -1 776 -7 48 -24 148 -31 185 -27 151 -110 418 -180 582 -39
92 -147 307 -167 333 -7 8 -21 31 -31 50 -77 142 -271 386 -441 555 -147 146
-276 251 -451 367 -133 88 -450 258 -483 258 -4 0 -25 8 -47 19 -68 32 -313
112 -389 126 -11 2 -40 9 -65 15 -55 14 -185 36 -260 45 -30 4 -68 9 -85 11
-35 6 -481 14 -486 10z"/>
</g>
</svg>
