<?xml version="1.0" standalone="no"?>
<!DOCTYPE svg PUBLIC "-//W3C//DTD SVG 20010904//EN"
 "http://www.w3.org/TR/2001/REC-SVG-20010904/DTD/svg10.dtd">
<svg version="1.0" xmlns="http://www.w3.org/2000/svg"
 width="260.000000pt" height="260.000000pt" viewBox="0 0 260.000000 260.000000"
 preserveAspectRatio="xMidYMid meet">
<metadata>
Created by potrace 1.14, written by Peter Selinger 2001-2017
</metadata>
<g transform="translate(0.000000,260.000000) scale(0.100000,-0.100000)"
fill="#000000" stroke="none">
<path d="M1134 2590 c-287 -41 -530 -159 -737 -359 -184 -177 -306 -394 -365
-645 -22 -96 -26 -134 -26 -281 -1 -142 3 -187 22 -275 113 -511 505 -897
1022 -1007 118 -25 382 -25 500 0 257 55 462 163 649 343 197 189 320 411 378
684 25 118 25 381 0 500 -108 510 -488 901 -986 1016 -118 27 -349 40 -457 24z
m501 -184 c41 -17 46 -27 85 -152 18 -54 76 -236 130 -404 373 -1153 382
-1182 376 -1216 -14 -72 -100 -98 -155 -46 -24 22 -42 65 -99 247 -38 121
-134 418 -212 660 -79 242 -145 448 -147 458 -3 9 -8 17 -12 17 -3 0 -28 -75
-55 -168 -27 -92 -88 -300 -136 -462 -48 -162 -93 -315 -100 -339 -32 -118
-148 -135 -197 -29 -11 24 -75 168 -143 321 -68 152 -126 277 -130 277 -6 0
-95 -310 -215 -750 -49 -176 -61 -209 -86 -232 -41 -39 -90 -38 -130 1 -18 18
-29 40 -29 56 0 15 34 149 76 299 42 149 114 408 160 576 47 168 91 328 99
355 18 63 52 97 98 98 66 2 73 -10 227 -357 79 -179 147 -322 151 -318 4 4 37
111 74 237 172 593 246 830 267 852 11 12 30 24 42 26 11 2 22 5 24 6 1 0 18
-5 37 -13z"/>
</g>
</svg>
